<?xml version="1.0" encoding="UTF-8" standalone="no"?>
<!-- Created with Inkscape (http://www.inkscape.org/) -->

<svg
   width="285.75mm"
   height="285.75mm"
   viewBox="0 0 285.74999 285.75"
   version="1.1"
   id="svg1"
   xml:space="preserve"
   xmlns:xlink="http://www.w3.org/1999/xlink"
   xmlns="http://www.w3.org/2000/svg"
   xmlns:svg="http://www.w3.org/2000/svg"><defs
     id="defs1"><linearGradient
       id="linearGradient332"><stop
         style="stop-color:#e9e7c4;stop-opacity:1"
         offset="0"
         id="stop329" /><stop
         style="stop-color:#efba00;stop-opacity:1;"
         offset="0.40000001"
         id="stop331" /><stop
         style="stop-color:#ee8019;stop-opacity:1"
         offset="1"
         id="stop332" /></linearGradient><linearGradient
       id="linearGradient315"><stop
         style="stop-color:#efb403;stop-opacity:1;"
         offset="0"
         id="stop312" /><stop
         style="stop-color:#efb502;stop-opacity:1;"
         offset="0.30019164"
         id="stop313" /><stop
         style="stop-color:#efba00;stop-opacity:1;"
         offset="0.37017253"
         id="stop314" /><stop
         style="stop-color:#ee8019;stop-opacity:1"
         offset="1"
         id="stop315" /></linearGradient><linearGradient
       id="linearGradient307"><stop
         style="stop-color:#ffffff;stop-opacity:1"
         offset="0"
         id="stop307" /><stop
         style="stop-color:#f0bc00;stop-opacity:1"
         offset="0.20937453"
         id="stop309" /><stop
         style="stop-color:#ee990e;stop-opacity:1"
         offset="0.56957108"
         id="stop310" /><stop
         style="stop-color:#edc73a;stop-opacity:1"
         offset="1"
         id="stop308" /></linearGradient><linearGradient
       id="linearGradient294"><stop
         style="stop-color:#efb403;stop-opacity:1;"
         offset="0"
         id="stop298" /><stop
         style="stop-color:#efba00;stop-opacity:1;"
         offset="0.60000002"
         id="stop300" /><stop
         style="stop-color:#ee8019;stop-opacity:1"
         offset="1"
         id="stop296" /></linearGradient><radialGradient
       xlink:href="#linearGradient294"
       id="radialGradient188"
       gradientUnits="userSpaceOnUse"
       gradientTransform="matrix(6.4008205e-6,0.54160818,-1.2473516,1.474142e-5,418.27531,410.34177)"
       cx="76.303848"
       cy="273.46988"
       fx="76.303848"
       fy="273.46988"
       r="1.8301229" /><linearGradient
       xlink:href="#linearGradient307"
       id="linearGradient188"
       gradientUnits="userSpaceOnUse"
       gradientTransform="translate(-2.1734617e-4,178.78941)"
       x1="74.633003"
       y1="269.61639"
       x2="79.291229"
       y2="270.58319" /><radialGradient
       xlink:href="#linearGradient332"
       id="radialGradient189"
       gradientUnits="userSpaceOnUse"
       gradientTransform="matrix(-2.9161201e-6,1.2206311,-1.539767,-2.2251686e-6,486.14819,350.36165)"
       cx="76.990105"
       cy="265.64838"
       fx="76.990105"
       fy="265.64838"
       r="1.865261" /><linearGradient
       xlink:href="#linearGradient315"
       id="linearGradient189"
       gradientUnits="userSpaceOnUse"
       gradientTransform="translate(-2.1734617e-4,178.78941)"
       x1="74.063438"
       y1="272.28122"
       x2="79.931252"
       y2="272.28122" /><linearGradient
       xlink:href="#linearGradient315"
       id="linearGradient190"
       gradientUnits="userSpaceOnUse"
       gradientTransform="translate(-2.1734617e-4,178.78941)"
       x1="74.063438"
       y1="272.28122"
       x2="79.931252"
       y2="272.28122" /></defs><g
     id="layer1"
     transform="translate(-1068.526,-991.19019)"><g
       id="g184"
       transform="translate(997.51294)"><rect
         style="fill:none;stroke:none;stroke-width:0.887;stroke-linecap:square;stroke-linejoin:round;paint-order:markers fill stroke"
         id="rect14"
         width="285.75"
         height="285.75"
         x="71.013031"
         y="991.19019"
         rx="0"
         ry="0" /><g
         id="g183"
         transform="matrix(16.978722,0,0,16.978722,-1096.0226,-6459.1547)"
         style="stroke-width:0.0896776"><path
           id="path157"
           style="color:#000000;fill:url(#radialGradient188);fill-opacity:1;stroke-width:0.0896776;stroke-linecap:square;stroke-linejoin:round;-inkscape-stroke:none;paint-order:markers fill stroke"
           d="m 75.386674,451.72478 a 0.06615262,0.06615262 0 0 0 -0.06666,0.0667 c 0,0.31457 0.24021,0.57413 0.541053,0.57413 h 2.578137 c 0.300843,0 0.541052,-0.25956 0.541052,-0.57413 a 0.06615262,0.06615262 0 0 0 -0.06666,-0.0667 h -0.8785 -1.771468 z" /><path
           id="path159"
           style="color:#000000;fill:url(#linearGradient188);fill-opacity:1;stroke-width:0.0896776;stroke-linecap:round;stroke-linejoin:round;-inkscape-stroke:none;paint-order:markers fill stroke"
           d="m 75.306576,447.21343 a 0.06615262,0.06615262 0 0 0 -0.06666,0.0661 v 3.3476 a 0.06615262,0.06615262 0 0 0 0.06666,0.0667 h 0.681612 a 0.06615262,0.06615262 0 0 0 0.06615,-0.0667 v -3.3476 a 0.06615262,0.06615262 0 0 0 -0.06615,-0.0661 z m 1.118794,0 a 0.06615262,0.06615262 0 0 0 -0.06614,0.0661 v 3.3476 a 0.06615262,0.06615262 0 0 0 0.06614,0.0667 h 1.3224 a 0.06615262,0.06615262 0 0 0 0.06666,-0.0667 v -3.3476 a 0.06615262,0.06615262 0 0 0 -0.06666,-0.0661 z m 1.7601,0 a 0.06615262,0.06615262 0 0 0 -0.06666,0.0661 v 3.3476 a 0.06615262,0.06615262 0 0 0 0.06666,0.0667 h 0.679545 a 0.06615262,0.06615262 0 0 0 0.06666,-0.0667 v -3.3476 a 0.06615262,0.06615262 0 0 0 -0.06666,-0.0661 z" /><path
           id="path160"
           style="color:#000000;fill:url(#radialGradient189);fill-opacity:1;stroke-width:0.0896776;stroke-linecap:square;stroke-linejoin:round;-inkscape-stroke:none;paint-order:markers fill stroke"
           d="m 77.288884,441.96103 c -0.110375,-10e-4 -0.220933,0.0209 -0.322461,0.0646 -0.403571,0.17368 -0.591012,0.6452 -0.419613,1.05265 0.09311,0.22135 0.273865,0.37898 0.484208,0.44907 v 0.42064 c -0.842621,0.47858 -1.279576,0.80093 -1.507918,1.11466 -0.236314,0.32468 -0.238229,0.63542 -0.238229,1.05317 a 0.0660066,0.0660066 0 0 0 0.06666,0.0641 h 0.939478 0.859379 0.859379 0.939477 a 0.0660066,0.0660066 0 0 0 0.06615,-0.0641 c 0,-0.41775 -0.0019,-0.72849 -0.238228,-1.05317 -0.228156,-0.31348 -0.666526,-0.63569 -1.507919,-1.11363 v -0.38137 c 0.106965,0.002 0.215816,-0.0186 0.320394,-0.0636 0.15703,-0.068 0.277596,-0.1954 0.363286,-0.34365 0.0066,-0.007 0.01695,-0.01 0.02325,-0.0176 l -0.0021,-0.002 c 0.0022,-0.004 0.0076,-0.006 0.0098,-0.01 a 0.0660066,0.0660066 0 0 0 -0.109038,-0.0718 c -0.0569,0.0693 -0.129173,0.12458 -0.21084,0.16019 -0.287226,0.12363 -0.615905,-0.0115 -0.738456,-0.30282 -0.122537,-0.29137 0.0093,-0.62672 0.296623,-0.75034 0.08164,-0.0351 0.17149,-0.049 0.259932,-0.0429 a 0.0660066,0.0660066 0 0 0 0.02325,-0.12868 c -0.0044,-10e-4 -0.009,-7.6e-4 -0.01344,-0.002 v -0.002 c -0.0019,-1.3e-4 -0.0037,1.2e-4 -0.0057,0 -0.06441,-0.0176 -0.130626,-0.0286 -0.197403,-0.0295 z m 0.330212,1.34307 a 0.63018215,0.6375127 0 0 1 -0.173116,0.0248 c 0.0579,-0.003 0.115964,-0.0111 0.173116,-0.0248 z" /><path
           id="path181"
           style="color:#000000;fill:url(#linearGradient189);fill-opacity:1;stroke-width:0.0896776;stroke-linecap:square;stroke-linejoin:round;-inkscape-stroke:none;paint-order:markers fill stroke"
           d="m 75.166016,446.40676 a 0.06615262,0.06615262 0 0 0 -0.05116,0.0274 l -0.343648,0.44701 a 0.06615262,0.06615262 0 0 0 0.05271,0.10542 h 1.214913 2.222603 1.214913 a 0.06615262,0.06615262 0 0 0 0.05271,-0.10542 l -0.343648,-0.44701 a 0.06615262,0.06615262 0 0 0 -0.05271,-0.0274 H 78.09762 76.201095 Z" /><path
           id="path183"
           style="color:#000000;fill:url(#linearGradient190);fill-opacity:1;stroke-width:0.0896776;stroke-linecap:square;stroke-linejoin:round;-inkscape-stroke:none;paint-order:markers fill stroke"
           d="m 74.823918,450.92018 a 0.06615262,0.06615262 0 0 0 -0.05271,0.10542 l 0.343648,0.44751 a 0.06615262,0.06615262 0 0 0 0.05116,0.0253 h 1.035079 1.896525 1.035079 a 0.06615262,0.06615262 0 0 0 0.05271,-0.0253 l 0.343648,-0.44751 a 0.06615262,0.06615262 0 0 0 -0.05271,-0.10542 h -1.214913 -2.222603 z" /></g></g></g><style
     type="text/css"
     id="style1">
	.st0{fill:#231F20;}
	.st1{fill:#0F1016;}
	.st2{fill:url(#SVGID_1_);}
	.st3{fill:url(#SVGID_2_);}
	.st4{fill:url(#SVGID_3_);}
	.st5{fill:url(#SVGID_4_);}
	.st6{clip-path:url(#SVGID_6_);fill:#231F20;}
</style></svg>
